# xmcd
#
# Track frame offsets:
#	150
#	12660
#	27218
#	37139
#	51759
#	63196
#	76061
#	87681
#	106276
#	119932
#
# Disc length: 1754 seconds
#
# Revision: 0
# Processed by: cddbd v1.4PL0 Copyright (c) Steve Scherf et al.
# Submitted via: dBpowerAMP V4.0
#
DISCID=8706d80a
DTITLE=Eddy Arnold - I Wish I Had Loved You Better
DYEAR=1900
DGENRE=Country
TTITLE0=I Wish That I Had Loved You Better
TTITLE1=Memories Are Made Of This
TTITLE2=My Lonely Room
TTITLE3=A Place In The Sun
TTITLE4=Sunshine Blue
TTITLE5=Butterfly
TTITLE6=Let Me Call You Baby Tonight
TTITLE7=Eve's Garden
TTITLE8=Let It Be Me
TTITLE9=If You Could Only Love Me Now
EXTD=Originally an LP Album.
EXTT0=
EXTT1=
EXTT2=
EXTT3=
EXTT4=
EXTT5=
EXTT6=
EXTT7=
EXTT8=
EXTT9=
PLAYORDER=
